<svg xmlns="http://www.w3.org/2000/svg" viewBox="0 0 64 64"> <defs> <linearGradient id="g" x1="8" y1="8" x2="56" y2="56"> <stop offset="0%" stop-color="#7E6BFF"/> <stop offset="55%" stop-color="#3F8CFF"/> <stop offset="100%" stop-color="#29D4E8"/> </linearGradient> </defs> <rect x="3" y="3" width="58" height="58" rx="16" fill="#0B1020" /> <rect x="4" y="4" width="56" height="56" rx="15" fill="none" stroke="url(#g)" stroke-width="2" /> <path d="M45 16 C40 11 30 10 23 13 C17 16 15 21 18 25 C21 29 27 30 33 31 C39 32 42 34 41 38 C40 42 34 44 29 43 C24 43 20 41 17 38" fill="none" stroke="url(#g)" stroke-width="7" stroke-linecap="round" stroke-linejoin="round" /> <path d="M42 15 L52 15 L52 25" fill="none" stroke="#65E4EF" stroke-width="3" stroke-linecap="round" stroke-linejoin="round" /> <circle cx="49" cy="12" r="2.5" fill="#B7ADFF" /> </svg>